<svg xmlns="http://www.w3.org/2000/svg" version="1.1" xmlns:xlink="http://www.w3.org/1999/xlink" width="512" height="512" x="0" y="0" viewBox="0 0 24 24" style="enable-background:new 0 0 512 512" xml:space="preserve" class=""><g><path d="m23.637 10.55-4.252-7.962a2.993 2.993 0 0 0-2.646-1.587H7.282a2.993 2.993 0 0 0-2.644 1.582L.366 10.549c-.489.911-.489 2 0 2.911l4.271 7.958a2.995 2.995 0 0 0 2.644 1.581h9.457c1.11 0 2.124-.608 2.646-1.587l4.252-7.962a3.074 3.074 0 0 0 0-2.901Zm-1.764 1.958-4.252 7.963a.999.999 0 0 1-.883.529H7.281a1 1 0 0 1-.882-.527l-4.271-7.958a1.078 1.078 0 0 1 0-1.02l4.273-7.968A.998.998 0 0 1 7.282 3h9.456c.37 0 .708.203.883.529l4.252 7.963c.17.317.17.697 0 1.015Zm-5.631-3.336-2.828 2.829 2.828 2.829-1.414 1.414L12 13.416l-2.828 2.828-1.414-1.414 2.828-2.829-2.828-2.829 1.414-1.414L12 10.586l2.828-2.828 1.414 1.414Z" fill="#ffffff" opacity="1" data-original="#000000" class=""></path></g></svg>